# xmcd CD database file
#
# Track frame offsets:
#	150
#	15204
#	28036
#	41474
#	53442
#	67991
#	83100
#	94945
#	109707
#	121791
#	132664
#	146642
#	161191
#	176625
#	195290
#	207178
#	218515
#	230421
#	242358
#	255467
#
# Disc length: 3673 seconds
#
# Revision: 1
# Processed by: cddbd v1.5.2PL0 Copyright (c) Steve Scherf et al.
# Submitted via: CDex 1.51
#
DISCID=000e5714
DTITLE=Jazz - JazzCharacters
DYEAR=1900
DGENRE=Jazz
TTITLE0=Louis Armstrong - West end blues
TTITLE1=Count Basie - Swinging the blues
TTITLE2=Sidney Bechet - Maple leaf rag
TTITLE3=Miles Davis - Milestones
TTITLE4=Duke Ellington - It don't mean a thing
TTITLE5=Ella Fitzgerald - Sentimental journey
TTITLE6=Erroll Garner - Indiana
TTITLE7=Dizzy Gillepsie - Salt peanuts
TTITLE8=Benny Goodman - Runnin' wild
TTITLE9=Lionel Hampton - Jivin' the vibes
TTITLE10=Coleman Hawkins - Body and soul 
TTITLE11=Blue Holiday - Strange fruit
TTITLE12=Thelonious Monk - Misterioso
TTITLE13=Jerry Roll Morton - Mister Jelly Lord
TTITLE14=Charlie Parker - Donna Lee
TTITLE15=Bud Powell - Tempus fugit
TTITLE16=Django Reinhardt - Dinah
TTITLE17=Art Tatum - Tea for two
TTITLE18=Fats Waller - I ain't got nobody
TTITLE19=Lester Young - Lester leaps again
EXTD=
EXTT0=
EXTT1=
EXTT2=
EXTT3=
EXTT4=
EXTT5=
EXTT6=
EXTT7=
EXTT8=
EXTT9=
EXTT10=
EXTT11=
EXTT12=
EXTT13=
EXTT14=
EXTT15=
EXTT16=
EXTT17=
EXTT18=
EXTT19=
PLAYORDER=
